<svg width="251" height="95" viewBox="0 0 251 95" fill="none" xmlns="http://www.w3.org/2000/svg">
<path d="M0.0540003 0.654993H33.57L38.568 63.865L69.144 0.654993H83.697L40.185 94H5.493L0.0540003 0.654993Z" fill="#2558FF"/>
<path d="M80.111 80.05V59.59C80.111 50.29 84.761 45.64 94.061 45.64H106.151C115.451 45.64 120.101 50.29 120.101 59.59V72.703H87.551V80.98C87.551 85.32 89.721 87.49 94.061 87.49H118.241V91.21L114.521 94H94.061C84.761 94 80.111 89.35 80.111 80.05ZM87.551 66.658H112.661V58.66C112.661 54.32 110.491 52.15 106.151 52.15H94.061C89.721 52.15 87.551 54.32 87.551 58.66V66.658ZM133.885 80.794V25.18H141.325V81.538C141.325 85.816 143.495 88.079 147.835 88.327V94.744C138.535 94.744 133.885 90.094 133.885 80.794ZM157.672 80.05V59.59C157.672 50.29 162.322 45.64 171.622 45.64H184.642C193.942 45.64 198.592 50.29 198.592 59.59V80.05C198.592 89.35 193.942 94 184.642 94H171.622C162.322 94 157.672 89.35 157.672 80.05ZM165.112 80.98C165.112 85.32 167.282 87.49 171.622 87.49H184.642C188.982 87.49 191.152 85.32 191.152 80.98V58.66C191.152 54.32 188.982 52.15 184.642 52.15H171.622C167.282 52.15 165.112 54.32 165.112 58.66V80.98ZM208.076 92.605L225.188 69.355L208.727 47.035L209.378 45.64H216.26L229.466 63.961L242.672 45.64H249.554L250.205 47.035L233.837 69.355L250.856 92.605L250.205 94H243.323L229.466 74.749L215.609 94H208.727L208.076 92.605Z" fill="black"/>
</svg>
